<svg width="450" height="450" viewbox = "0 0 450 450"  xmlns="http://www.w3.org/2000/svg">
<!--<json>{
  "glyph": "0336,0305,0336,0311,0350,0201,0335,0335,0201,0335,0335,0335,0335,0337,0201,0334,0334,0334,0334,0336,0342,0335,0337,0342,0336,0335,0342,0335,0335,0342,0335,0335,0342,0335,0337,0342,0334,0334,0342,0334,0334,0342,0330,0334,0334,0334,0334,0334,0336,0335,0201,0335,0201,0334,0334,0334,0201,0335,0201,0334,0334,0334,0330,0335,0201,0334,0334,0334,0201,0335,0201,0334,0334,0334,0201,0335,0201,0334,0334,0334,0330,0336,0201,0334,0201,0334,0334,0334,0334,0201,0334,0201,0335,0335,0201,0335,0335,0201,0335,0335,0335,0335,0335,0335,0201,0334,0334,0334,0334,0201,0334,0334,0334,0334,0201,0334,0334,0334,0334,0201,0334,0334,0201,0335,0335,0335,0335,0201,0335,0335,0335,0335,0201,0335,0335,0335,0335,0201,0335,0335,0335,0334,0334,0334,0334,0336,0330,0334,0334,0334,0337,0201,0334,0334,0334,0336,0201,0334,0334,0334,0337,0201,0334,0334,0334,0336,0201,0335,0201,0334,0334,0334,0337,0201,0334,0334,0334,0336,0201,0334,0334,0334,0337,0201,0331,0336,0333,0334,0334,0334,0337,0342,0330,0336,0201,0335,0335,0335,0335,0337,0201,0334,0334,0334,0334,0201,0334,0334,0334,0334,0201,0334,0334,0334,0334,0201,0334,0334,0334,0334,0201,0322,0341,0333,0336,0341,0336,0336,0341,0335,0335,0304,01150,01145,01162,01145,01040,01151,01163,01040,01164,01145,01170,01164,",
  "x0": 225,
  "y0": 225,
  "unit": 345.2271214393104,
  "width": 450,
  "height": 450,
  "style": {
    "color0": "black",
    "fill0": "black",
    "line0": 1,
    "color1": "black",
    "fill1": "black",
    "line1": 5,
    "color2": "red",
    "fill2": "red",
    "line2": 2,
    "color3": "#FF7900",
    "fill3": "#FF7900",
    "line3": 2,
    "color4": "yellow",
    "fill4": "yellow",
    "line4": 2,
    "color5": "green",
    "fill5": "green",
    "line5": 2,
    "color6": "blue",
    "fill6": "blue",
    "line6": 2,
    "color7": "purple",
    "fill7": "purple",
    "line7": 2
  },
  "shapes": [
    "01220:0333,0200,0336,0330,0332,0336,0332,060,062,062,060,0365,0333,0333,0331,0331,0333,0337,0337,",
    "01221:0333,0200,0336,0330,0332,0336,0332,060,062,062,061,0365,0333,0333,0331,0331,0333,0337,0337,",
    "01222:0333,0200,0336,0330,0332,0336,0332,060,062,062,062,0365,0333,0333,0331,0331,0333,0337,0337,",
    "01223:0333,0200,0336,0330,0332,0336,0332,060,062,062,063,0365,0333,0333,0331,0331,0333,0337,0337,",
    "01224:0333,0200,0336,0330,0332,0336,0332,060,062,062,064,0365,0333,0333,0331,0331,0333,0337,0337,",
    "01225:0333,0200,0336,0330,0332,0336,0332,060,062,062,065,0365,0333,0333,0331,0331,0333,0337,0337,",
    "01226:0333,0200,0336,0330,0332,0336,0332,060,062,062,066,0365,0333,0333,0331,0331,0333,0337,0337,",
    "01227:0333,0200,0336,0330,0332,0336,0332,060,062,062,067,0365,0333,0333,0331,0331,0333,0337,0337,",
    "01230:0333,0200,0336,0330,0332,0336,0332,060,062,063,060,0365,0333,0333,0331,0331,0333,0337,0337,",
    "01231:0333,0200,0336,0330,0332,0336,0332,060,062,063,061,0365,0333,0333,0331,0331,0333,0337,0337,",
    "01232:0333,0200,0336,0330,0332,0336,0332,060,062,063,062,0365,0333,0333,0331,0331,0333,0337,0337,",
    "01233:0333,0200,0336,0330,0332,0336,0332,060,062,063,063,0365,0333,0333,0331,0331,0333,0337,0337,",
    "01234:0333,0200,0336,0330,0332,0336,0332,060,062,063,064,0365,0333,0333,0331,0331,0333,0337,0337,",
    "01235:0333,0200,0336,0330,0332,0336,0332,060,062,063,065,0365,0333,0333,0331,0331,0333,0337,0337,",
    "01236:0333,0200,0336,0330,0332,0336,0332,060,062,063,066,0365,0333,0333,0331,0331,0333,0337,0337,",
    "01237:0333,0200,0336,0330,0332,0336,0332,060,062,063,067,0365,0333,0333,0331,0331,0333,0337,0337,"
  ]
}</json>-->    <line x1="225" y1="225" x2="225" y2="139" style="stroke:#000000;stroke-width:1" />
    <line x1="225" y1="139" x2="307" y2="112" style="stroke:#000000;stroke-width:1" />
    <line x1="307" y1="112" x2="225" y2="225" style="stroke:#000000;stroke-width:1" />
    <line x1="225" y1="225" x2="307" y2="198" style="stroke:#000000;stroke-width:1" />
    <line x1="225" y1="225" x2="358" y2="268" style="stroke:#000000;stroke-width:1" />
    <line x1="225" y1="225" x2="276" y2="295" style="stroke:#000000;stroke-width:1" />
    <line x1="225" y1="225" x2="174" y2="295" style="stroke:#000000;stroke-width:1" />
    <line x1="225" y1="225" x2="143" y2="198" style="stroke:#000000;stroke-width:1" />
    <line x1="225" y1="225" x2="143" y2="112" style="stroke:#000000;stroke-width:1" />
    <line x1="225" y1="225" x2="92" y2="268" style="stroke:#000000;stroke-width:1" />
    <line x1="225" y1="225" x2="225" y2="365" style="stroke:#000000;stroke-width:1" />
    <line x1="225" y1="365" x2="276" y2="295" style="stroke:#000000;stroke-width:1" />
    <line x1="276" y1="295" x2="358" y2="268" style="stroke:#000000;stroke-width:1" />
    <line x1="358" y1="268" x2="307" y2="198" style="stroke:#000000;stroke-width:1" />
    <line x1="307" y1="198" x2="307" y2="112" style="stroke:#000000;stroke-width:1" />
    <line x1="225" y1="139" x2="143" y2="112" style="stroke:#000000;stroke-width:1" />
    <line x1="143" y1="112" x2="143" y2="198" style="stroke:#000000;stroke-width:1" />
    <line x1="143" y1="198" x2="92" y2="268" style="stroke:#000000;stroke-width:1" />
    <line x1="92" y1="268" x2="174" y2="295" style="stroke:#000000;stroke-width:1" />
    <line x1="174" y1="295" x2="225" y2="365" style="stroke:#000000;stroke-width:1" />
    <line x1="276" y1="295" x2="307" y2="252" style="stroke:#000000;stroke-width:1" />
    <line x1="307" y1="252" x2="307" y2="198" style="stroke:#000000;stroke-width:1" />
    <line x1="307" y1="198" x2="276" y2="241" style="stroke:#000000;stroke-width:1" />
    <line x1="276" y1="241" x2="276" y2="295" style="stroke:#000000;stroke-width:1" />
    <line x1="276" y1="295" x2="225" y2="311" style="stroke:#000000;stroke-width:1" />
    <line x1="225" y1="311" x2="194" y2="268" style="stroke:#000000;stroke-width:1" />
    <line x1="194" y1="268" x2="194" y2="321" style="stroke:#000000;stroke-width:1" />
    <line x1="194" y1="321" x2="225" y2="278" style="stroke:#000000;stroke-width:1" />
    <line x1="225" y1="278" x2="174" y2="295" style="stroke:#000000;stroke-width:1" />
    <line x1="174" y1="295" x2="225" y2="311" style="stroke:#000000;stroke-width:1" />
    <line x1="225" y1="311" x2="256" y2="268" style="stroke:#000000;stroke-width:1" />
    <line x1="256" y1="268" x2="256" y2="321" style="stroke:#000000;stroke-width:1" />
    <line x1="256" y1="321" x2="225" y2="278" style="stroke:#000000;stroke-width:1" />
    <line x1="225" y1="278" x2="276" y2="295" style="stroke:#000000;stroke-width:1" />
    <line x1="307" y1="285" x2="276" y2="241" style="stroke:#000000;stroke-width:1" />
    <line x1="276" y1="241" x2="256" y2="268" style="stroke:#000000;stroke-width:1" />
    <line x1="256" y1="268" x2="307" y2="285" style="stroke:#000000;stroke-width:1" />
    <line x1="307" y1="285" x2="307" y2="252" style="stroke:#000000;stroke-width:1" />
    <line x1="307" y1="252" x2="326" y2="225" style="stroke:#000000;stroke-width:1" />
    <line x1="326" y1="225" x2="276" y2="209" style="stroke:#000000;stroke-width:1" />
    <line x1="276" y1="209" x2="276" y2="241" style="stroke:#000000;stroke-width:1" />
    <line x1="276" y1="241" x2="326" y2="225" style="stroke:#000000;stroke-width:1" />
    <line x1="307" y1="252" x2="276" y2="209" style="stroke:#000000;stroke-width:1" />
    <line x1="276" y1="209" x2="256" y2="182" style="stroke:#000000;stroke-width:1" />
    <line x1="256" y1="182" x2="307" y2="198" style="stroke:#000000;stroke-width:1" />
    <line x1="307" y1="198" x2="276" y2="155" style="stroke:#000000;stroke-width:1" />
    <line x1="276" y1="155" x2="276" y2="209" style="stroke:#000000;stroke-width:1" />
    <line x1="276" y1="209" x2="307" y2="165" style="stroke:#000000;stroke-width:1" />
    <line x1="307" y1="165" x2="256" y2="182" style="stroke:#000000;stroke-width:1" />
<circle cx="256" cy = "182" r = "53.34052372194533" stroke = "#ff0000" stroke-width = "2" fill = "none" />
<circle cx="206" cy = "165" r = "32.96625663788226" stroke = "#ff0000" stroke-width = "2" fill = "none" />
<circle cx="206" cy = "165" r = "12.591989553819188" stroke = "#ff0000" stroke-width = "2" fill = "none" />
    <circle cx="209" cy = "163" r = "1.8371465169067316" stroke = "#ff0000" stroke-width = "2" fill = "#ff0000" />
    <circle cx="206" cy = "160" r = "1.8371465169067316" stroke = "#ff0000" stroke-width = "2" fill = "#ff0000" />
    <circle cx="204" cy = "157" r = "1.8371465169067316" stroke = "#ff0000" stroke-width = "2" fill = "#ff0000" />
    <circle cx="202" cy = "154" r = "1.8371465169067316" stroke = "#ff0000" stroke-width = "2" fill = "#ff0000" />
    <circle cx="200" cy = "151" r = "1.8371465169067316" stroke = "#ff0000" stroke-width = "2" fill = "#ff0000" />
    <circle cx="198" cy = "148" r = "1.8371465169067316" stroke = "#ff0000" stroke-width = "2" fill = "#ff0000" />
    <circle cx="196" cy = "145" r = "1.8371465169067316" stroke = "#ff0000" stroke-width = "2" fill = "#ff0000" />
    <circle cx="193" cy = "142" r = "1.8371465169067316" stroke = "#ff0000" stroke-width = "2" fill = "#ff0000" />
    <circle cx="205" cy = "152" r = "1.8371465169067316" stroke = "#ff0000" stroke-width = "2" fill = "#ff0000" />
    <circle cx="206" cy = "147" r = "1.8371465169067316" stroke = "#ff0000" stroke-width = "2" fill = "#ff0000" />
    <circle cx="209" cy = "145" r = "1.8371465169067316" stroke = "#ff0000" stroke-width = "2" fill = "#ff0000" />
    <circle cx="214" cy = "146" r = "1.8371465169067316" stroke = "#ff0000" stroke-width = "2" fill = "#ff0000" />
    <circle cx="216" cy = "149" r = "1.8371465169067316" stroke = "#ff0000" stroke-width = "2" fill = "#ff0000" />
    <circle cx="218" cy = "152" r = "1.8371465169067316" stroke = "#ff0000" stroke-width = "2" fill = "#ff0000" />
    <circle cx="220" cy = "155" r = "1.8371465169067316" stroke = "#ff0000" stroke-width = "2" fill = "#ff0000" />
    <circle cx="224" cy = "147" r = "1.8371465169067316" stroke = "#ff0000" stroke-width = "2" fill = "#ff0000" />
    <circle cx="222" cy = "144" r = "1.8371465169067316" stroke = "#ff0000" stroke-width = "2" fill = "#ff0000" />
    <circle cx="220" cy = "141" r = "1.8371465169067316" stroke = "#ff0000" stroke-width = "2" fill = "#ff0000" />
    <circle cx="221" cy = "136" r = "1.8371465169067316" stroke = "#ff0000" stroke-width = "2" fill = "#ff0000" />
    <circle cx="224" cy = "134" r = "1.8371465169067316" stroke = "#ff0000" stroke-width = "2" fill = "#ff0000" />
    <circle cx="227" cy = "132" r = "1.8371465169067316" stroke = "#ff0000" stroke-width = "2" fill = "#ff0000" />
    <circle cx="232" cy = "133" r = "1.8371465169067316" stroke = "#ff0000" stroke-width = "2" fill = "#ff0000" />
    <circle cx="234" cy = "136" r = "1.8371465169067316" stroke = "#ff0000" stroke-width = "2" fill = "#ff0000" />
    <circle cx="231" cy = "138" r = "1.8371465169067316" stroke = "#ff0000" stroke-width = "2" fill = "#ff0000" />
    <circle cx="228" cy = "140" r = "1.8371465169067316" stroke = "#ff0000" stroke-width = "2" fill = "#ff0000" />
    <circle cx="225" cy = "142" r = "1.8371465169067316" stroke = "#ff0000" stroke-width = "2" fill = "#ff0000" />
    <circle cx="229" cy = "148" r = "1.8371465169067316" stroke = "#ff0000" stroke-width = "2" fill = "#ff0000" />
    <circle cx="232" cy = "146" r = "1.8371465169067316" stroke = "#ff0000" stroke-width = "2" fill = "#ff0000" />
    <circle cx="235" cy = "144" r = "1.8371465169067316" stroke = "#ff0000" stroke-width = "2" fill = "#ff0000" />
    <circle cx="244" cy = "137" r = "1.8371465169067316" stroke = "#ff0000" stroke-width = "2" fill = "#ff0000" />
    <circle cx="242" cy = "134" r = "1.8371465169067316" stroke = "#ff0000" stroke-width = "2" fill = "#ff0000" />
    <circle cx="240" cy = "131" r = "1.8371465169067316" stroke = "#ff0000" stroke-width = "2" fill = "#ff0000" />
    <circle cx="238" cy = "128" r = "1.8371465169067316" stroke = "#ff0000" stroke-width = "2" fill = "#ff0000" />
    <circle cx="236" cy = "125" r = "1.8371465169067316" stroke = "#ff0000" stroke-width = "2" fill = "#ff0000" />
    <circle cx="241" cy = "126" r = "1.8371465169067316" stroke = "#ff0000" stroke-width = "2" fill = "#ff0000" />
    <circle cx="242" cy = "121" r = "1.8371465169067316" stroke = "#ff0000" stroke-width = "2" fill = "#ff0000" />
    <circle cx="245" cy = "119" r = "1.8371465169067316" stroke = "#ff0000" stroke-width = "2" fill = "#ff0000" />
    <circle cx="250" cy = "120" r = "1.8371465169067316" stroke = "#ff0000" stroke-width = "2" fill = "#ff0000" />
    <circle cx="260" cy = "121" r = "1.8371465169067316" stroke = "#ff0000" stroke-width = "2" fill = "#ff0000" />
    <circle cx="258" cy = "118" r = "1.8371465169067316" stroke = "#ff0000" stroke-width = "2" fill = "#ff0000" />
    <circle cx="256" cy = "115" r = "1.8371465169067316" stroke = "#ff0000" stroke-width = "2" fill = "#ff0000" />
    <circle cx="256" cy = "110" r = "1.8371465169067316" stroke = "#ff0000" stroke-width = "2" fill = "#ff0000" />
    <circle cx="259" cy = "108" r = "1.8371465169067316" stroke = "#ff0000" stroke-width = "2" fill = "#ff0000" />
    <circle cx="262" cy = "106" r = "1.8371465169067316" stroke = "#ff0000" stroke-width = "2" fill = "#ff0000" />
    <circle cx="268" cy = "107" r = "1.8371465169067316" stroke = "#ff0000" stroke-width = "2" fill = "#ff0000" />
    <circle cx="270" cy = "110" r = "1.8371465169067316" stroke = "#ff0000" stroke-width = "2" fill = "#ff0000" />
    <circle cx="267" cy = "112" r = "1.8371465169067316" stroke = "#ff0000" stroke-width = "2" fill = "#ff0000" />
    <circle cx="264" cy = "114" r = "1.8371465169067316" stroke = "#ff0000" stroke-width = "2" fill = "#ff0000" />
    <circle cx="261" cy = "116" r = "1.8371465169067316" stroke = "#ff0000" stroke-width = "2" fill = "#ff0000" />
    <circle cx="265" cy = "122" r = "1.8371465169067316" stroke = "#ff0000" stroke-width = "2" fill = "#ff0000" />
    <circle cx="268" cy = "120" r = "1.8371465169067316" stroke = "#ff0000" stroke-width = "2" fill = "#ff0000" />
    <circle cx="271" cy = "118" r = "1.8371465169067316" stroke = "#ff0000" stroke-width = "2" fill = "#ff0000" />
    <circle cx="301" cy = "96" r = "1.8371465169067316" stroke = "#ff0000" stroke-width = "2" fill = "#ff0000" />
    <circle cx="304" cy = "94" r = "1.8371465169067316" stroke = "#ff0000" stroke-width = "2" fill = "#ff0000" />
    <circle cx="307" cy = "92" r = "1.8371465169067316" stroke = "#ff0000" stroke-width = "2" fill = "#ff0000" />
    <circle cx="302" cy = "91" r = "1.8371465169067316" stroke = "#ff0000" stroke-width = "2" fill = "#ff0000" />
    <circle cx="299" cy = "88" r = "1.8371465169067316" stroke = "#ff0000" stroke-width = "2" fill = "#ff0000" />
    <circle cx="297" cy = "85" r = "1.8371465169067316" stroke = "#ff0000" stroke-width = "2" fill = "#ff0000" />
    <circle cx="295" cy = "82" r = "1.8371465169067316" stroke = "#ff0000" stroke-width = "2" fill = "#ff0000" />
    <circle cx="292" cy = "84" r = "1.8371465169067316" stroke = "#ff0000" stroke-width = "2" fill = "#ff0000" />
    <circle cx="291" cy = "76" r = "1.8371465169067316" stroke = "#ff0000" stroke-width = "2" fill = "#ff0000" />
    <circle cx="316" cy = "85" r = "1.8371465169067316" stroke = "#ff0000" stroke-width = "2" fill = "#ff0000" />
    <circle cx="319" cy = "83" r = "1.8371465169067316" stroke = "#ff0000" stroke-width = "2" fill = "#ff0000" />
    <circle cx="322" cy = "81" r = "1.8371465169067316" stroke = "#ff0000" stroke-width = "2" fill = "#ff0000" />
    <circle cx="325" cy = "79" r = "1.8371465169067316" stroke = "#ff0000" stroke-width = "2" fill = "#ff0000" />
    <circle cx="325" cy = "74" r = "1.8371465169067316" stroke = "#ff0000" stroke-width = "2" fill = "#ff0000" />
    <circle cx="320" cy = "73" r = "1.8371465169067316" stroke = "#ff0000" stroke-width = "2" fill = "#ff0000" />
    <circle cx="317" cy = "75" r = "1.8371465169067316" stroke = "#ff0000" stroke-width = "2" fill = "#ff0000" />
    <circle cx="314" cy = "77" r = "1.8371465169067316" stroke = "#ff0000" stroke-width = "2" fill = "#ff0000" />
    <circle cx="309" cy = "77" r = "1.8371465169067316" stroke = "#ff0000" stroke-width = "2" fill = "#ff0000" />
    <circle cx="310" cy = "71" r = "1.8371465169067316" stroke = "#ff0000" stroke-width = "2" fill = "#ff0000" />
    <circle cx="313" cy = "69" r = "1.8371465169067316" stroke = "#ff0000" stroke-width = "2" fill = "#ff0000" />
    <circle cx="316" cy = "67" r = "1.8371465169067316" stroke = "#ff0000" stroke-width = "2" fill = "#ff0000" />
    <circle cx="319" cy = "65" r = "1.8371465169067316" stroke = "#ff0000" stroke-width = "2" fill = "#ff0000" />
    <circle cx="352" cy = "54" r = "1.8371465169067316" stroke = "#ff0000" stroke-width = "2" fill = "#ff0000" />
    <circle cx="350" cy = "51" r = "1.8371465169067316" stroke = "#ff0000" stroke-width = "2" fill = "#ff0000" />
    <circle cx="348" cy = "48" r = "1.8371465169067316" stroke = "#ff0000" stroke-width = "2" fill = "#ff0000" />
    <circle cx="346" cy = "45" r = "1.8371465169067316" stroke = "#ff0000" stroke-width = "2" fill = "#ff0000" />
    <circle cx="343" cy = "43" r = "1.8371465169067316" stroke = "#ff0000" stroke-width = "2" fill = "#ff0000" />
    <circle cx="341" cy = "40" r = "1.8371465169067316" stroke = "#ff0000" stroke-width = "2" fill = "#ff0000" />
    <circle cx="340" cy = "45" r = "1.8371465169067316" stroke = "#ff0000" stroke-width = "2" fill = "#ff0000" />
    <circle cx="346" cy = "40" r = "1.8371465169067316" stroke = "#ff0000" stroke-width = "2" fill = "#ff0000" />
    <circle cx="357" cy = "55" r = "1.8371465169067316" stroke = "#ff0000" stroke-width = "2" fill = "#ff0000" />
    <circle cx="360" cy = "53" r = "1.8371465169067316" stroke = "#ff0000" stroke-width = "2" fill = "#ff0000" />
    <circle cx="361" cy = "48" r = "1.8371465169067316" stroke = "#ff0000" stroke-width = "2" fill = "#ff0000" />
    <circle cx="367" cy = "44" r = "1.8371465169067316" stroke = "#ff0000" stroke-width = "2" fill = "#ff0000" />
    <circle cx="365" cy = "41" r = "1.8371465169067316" stroke = "#ff0000" stroke-width = "2" fill = "#ff0000" />
    <circle cx="363" cy = "38" r = "1.8371465169067316" stroke = "#ff0000" stroke-width = "2" fill = "#ff0000" />
    <circle cx="363" cy = "33" r = "1.8371465169067316" stroke = "#ff0000" stroke-width = "2" fill = "#ff0000" />
    <circle cx="366" cy = "30" r = "1.8371465169067316" stroke = "#ff0000" stroke-width = "2" fill = "#ff0000" />
    <circle cx="369" cy = "28" r = "1.8371465169067316" stroke = "#ff0000" stroke-width = "2" fill = "#ff0000" />
    <circle cx="375" cy = "29" r = "1.8371465169067316" stroke = "#ff0000" stroke-width = "2" fill = "#ff0000" />
    <circle cx="377" cy = "32" r = "1.8371465169067316" stroke = "#ff0000" stroke-width = "2" fill = "#ff0000" />
    <circle cx="374" cy = "34" r = "1.8371465169067316" stroke = "#ff0000" stroke-width = "2" fill = "#ff0000" />
    <circle cx="371" cy = "36" r = "1.8371465169067316" stroke = "#ff0000" stroke-width = "2" fill = "#ff0000" />
    <circle cx="368" cy = "38" r = "1.8371465169067316" stroke = "#ff0000" stroke-width = "2" fill = "#ff0000" />
    <circle cx="372" cy = "44" r = "1.8371465169067316" stroke = "#ff0000" stroke-width = "2" fill = "#ff0000" />
    <circle cx="375" cy = "42" r = "1.8371465169067316" stroke = "#ff0000" stroke-width = "2" fill = "#ff0000" />
    <circle cx="378" cy = "40" r = "1.8371465169067316" stroke = "#ff0000" stroke-width = "2" fill = "#ff0000" />
    <circle cx="387" cy = "34" r = "1.8371465169067316" stroke = "#ff0000" stroke-width = "2" fill = "#ff0000" />
    <circle cx="388" cy = "28" r = "1.8371465169067316" stroke = "#ff0000" stroke-width = "2" fill = "#ff0000" />
    <circle cx="391" cy = "26" r = "1.8371465169067316" stroke = "#ff0000" stroke-width = "2" fill = "#ff0000" />
    <circle cx="389" cy = "23" r = "1.8371465169067316" stroke = "#ff0000" stroke-width = "2" fill = "#ff0000" />
    <circle cx="386" cy = "20" r = "1.8371465169067316" stroke = "#ff0000" stroke-width = "2" fill = "#ff0000" />
    <circle cx="381" cy = "20" r = "1.8371465169067316" stroke = "#ff0000" stroke-width = "2" fill = "#ff0000" />
    <circle cx="378" cy = "22" r = "1.8371465169067316" stroke = "#ff0000" stroke-width = "2" fill = "#ff0000" />
    <circle cx="389" cy = "18" r = "1.8371465169067316" stroke = "#ff0000" stroke-width = "2" fill = "#ff0000" />
    <circle cx="390" cy = "13" r = "1.8371465169067316" stroke = "#ff0000" stroke-width = "2" fill = "#ff0000" />
    <circle cx="396" cy = "27" r = "1.8371465169067316" stroke = "#ff0000" stroke-width = "2" fill = "#ff0000" />
    <circle cx="399" cy = "25" r = "1.8371465169067316" stroke = "#ff0000" stroke-width = "2" fill = "#ff0000" />
    <circle cx="406" cy = "16" r = "1.8371465169067316" stroke = "#ff0000" stroke-width = "2" fill = "#ff0000" />
    <circle cx="403" cy = "13" r = "1.8371465169067316" stroke = "#ff0000" stroke-width = "2" fill = "#ff0000" />
    <circle cx="401" cy = "10" r = "1.8371465169067316" stroke = "#ff0000" stroke-width = "2" fill = "#ff0000" />
    <circle cx="399" cy = "7" r = "1.8371465169067316" stroke = "#ff0000" stroke-width = "2" fill = "#ff0000" />
    <circle cx="397" cy = "4" r = "1.8371465169067316" stroke = "#ff0000" stroke-width = "2" fill = "#ff0000" />
    <circle cx="395" cy = "1" r = "1.8371465169067316" stroke = "#ff0000" stroke-width = "2" fill = "#ff0000" />
    <circle cx="394" cy = "6" r = "1.8371465169067316" stroke = "#ff0000" stroke-width = "2" fill = "#ff0000" />
    <circle cx="400" cy = "1" r = "1.8371465169067316" stroke = "#ff0000" stroke-width = "2" fill = "#ff0000" />
    <circle cx="411" cy = "16" r = "1.8371465169067316" stroke = "#ff0000" stroke-width = "2" fill = "#ff0000" />
    <circle cx="414" cy = "14" r = "1.8371465169067316" stroke = "#ff0000" stroke-width = "2" fill = "#ff0000" />
    <circle cx="415" cy = "9" r = "1.8371465169067316" stroke = "#ff0000" stroke-width = "2" fill = "#ff0000" />
</svg>